<?xml version="1.0" encoding="UTF-8" standalone="no"?>
<!-- Created with Inkscape (http://www.inkscape.org/) -->

<svg
   xmlns:dc="http://purl.org/dc/elements/1.1/"
   xmlns:cc="http://creativecommons.org/ns#"
   xmlns:rdf="http://www.w3.org/1999/02/22-rdf-syntax-ns#"
   xmlns:svg="http://www.w3.org/2000/svg"
   xmlns="http://www.w3.org/2000/svg"
   xmlns:xlink="http://www.w3.org/1999/xlink"
   xmlns:sodipodi="http://sodipodi.sourceforge.net/DTD/sodipodi-0.dtd"
   xmlns:inkscape="http://www.inkscape.org/namespaces/inkscape"
   width="296"
   height="296"
   id="svg2"
   version="1.1"
   inkscape:version="0.48.2 r9819"
   style="enable-background:new"
   sodipodi:docname="logo.svg"
   inkscape:export-filename="/home/evgeny/workspace/animotron/bridge/site/animotron/logo-48x48.png"
   inkscape:export-xdpi="14.59"
   inkscape:export-ydpi="14.59">
  <defs
     id="defs4">
    <linearGradient
       inkscape:collect="always"
       id="linearGradient4584">
      <stop
         style="stop-color:#aa0000;stop-opacity:1"
         offset="0"
         id="stop4586" />
      <stop
         style="stop-color:#ff0000;stop-opacity:1"
         offset="1"
         id="stop4588" />
    </linearGradient>
    <linearGradient
       inkscape:collect="always"
       id="linearGradient4548">
      <stop
         style="stop-color:#1a1a1a;stop-opacity:1"
         offset="0"
         id="stop4550" />
      <stop
         style="stop-color:#ffffff;stop-opacity:1"
         offset="1"
         id="stop4552" />
    </linearGradient>
    <linearGradient
       id="linearGradient3786"
       inkscape:collect="always">
      <stop
         id="stop3788"
         offset="0"
         style="stop-color:#333333;stop-opacity:1" />
      <stop
         id="stop3790"
         offset="1"
         style="stop-color:#ffffff;stop-opacity:0" />
    </linearGradient>
    <metadata
       id="CorelCorpID_0Corel-Layer" />
    <linearGradient
       y2="36.685001"
       x2="31.4172"
       y1="27.632401"
       x1="30.625401"
       gradientUnits="userSpaceOnUse"
       id="linearGradient2480"
       xlink:href="#id0"
       inkscape:collect="always" />
    <linearGradient
       y2="90.093498"
       x2="31.4177"
       y1="81.039703"
       x1="30.624901"
       xlink:href="#id0"
       gradientUnits="userSpaceOnUse"
       id="id1" />
    <linearGradient
       y2="36.685001"
       x2="31.4172"
       y1="27.632401"
       x1="30.625401"
       gradientUnits="userSpaceOnUse"
       id="id0">
      <stop
         id="stop9"
         style="stop-color:#84C225"
         offset="0" />
      <stop
         id="stop11"
         style="stop-color:#E77817"
         offset="1" />
    </linearGradient>
    <style
       id="style6"
       type="text/css">
   
    .fil5 {fill:#42929D}
    .fil4 {fill:#8E84B7}
    .fil1 {fill:white}
    .fil2 {fill:#161311}
    .fil0 {fill:url(#id0)}
    .fil3 {fill:url(#id1)}
   
  </style>
    <inkscape:perspective
       id="perspective107"
       inkscape:persp3d-origin="372.04724 : 350.78739 : 1"
       inkscape:vp_z="744.09448 : 526.18109 : 1"
       inkscape:vp_y="0 : 1000 : 0"
       inkscape:vp_x="0 : 526.18109 : 1"
       sodipodi:type="inkscape:persp3d" />
    <linearGradient
       inkscape:collect="always"
       xlink:href="#linearGradient3682-5"
       id="linearGradient3688-6"
       x1="-383.57144"
       y1="140.27336"
       x2="-383.57144"
       y2="124.28388"
       gradientUnits="userSpaceOnUse" />
    <linearGradient
       inkscape:collect="always"
       id="linearGradient3682-5">
      <stop
         style="stop-color:#aa0000;stop-opacity:1"
         offset="0"
         id="stop3684-1" />
      <stop
         style="stop-color:#ff0000;stop-opacity:1"
         offset="1"
         id="stop3686-7" />
    </linearGradient>
    <linearGradient
       inkscape:collect="always"
       xlink:href="#linearGradient3682-0"
       id="linearGradient3688-3"
       x1="-383.57144"
       y1="140.27336"
       x2="-383.57144"
       y2="124.28388"
       gradientUnits="userSpaceOnUse" />
    <linearGradient
       inkscape:collect="always"
       id="linearGradient3682-0">
      <stop
         style="stop-color:#aa0000;stop-opacity:1"
         offset="0"
         id="stop3684-4" />
      <stop
         style="stop-color:#ff0000;stop-opacity:1"
         offset="1"
         id="stop3686-4" />
    </linearGradient>
    <linearGradient
       inkscape:collect="always"
       xlink:href="#linearGradient3786"
       id="linearGradient3854"
       gradientUnits="userSpaceOnUse"
       gradientTransform="translate(1.01015,-3.3255986e-6)"
       x1="-383.57144"
       y1="140.81261"
       x2="-383.57144"
       y2="111.31559" />
    <linearGradient
       inkscape:collect="always"
       xlink:href="#linearGradient4548"
       id="linearGradient4554"
       x1="160"
       y1="296"
       x2="160"
       y2="0"
       gradientUnits="userSpaceOnUse"
       gradientTransform="translate(-432.87126,-131.21697)" />
    <filter
       inkscape:collect="always"
       id="filter4580"
       color-interpolation-filters="sRGB">
      <feBlend
         inkscape:collect="always"
         mode="multiply"
         in2="BackgroundImage"
         id="feBlend4582" />
    </filter>
    <linearGradient
       inkscape:collect="always"
       xlink:href="#linearGradient4584"
       id="linearGradient4590"
       x1="-264.29987"
       y1="143.37833"
       x2="-264.29987"
       y2="34.27092"
       gradientUnits="userSpaceOnUse"
       gradientTransform="matrix(0.85937502,0,0,0.85937502,-64.166093,0.360114)" />
  </defs>
  <sodipodi:namedview
     id="base"
     pagecolor="#ffffff"
     bordercolor="#666666"
     borderopacity="1.0"
     inkscape:pageopacity="0.0"
     inkscape:pageshadow="2"
     inkscape:zoom="1.979899"
     inkscape:cx="230.01746"
     inkscape:cy="97.9083"
     inkscape:document-units="px"
     inkscape:current-layer="layer1"
     showgrid="false"
     showguides="true"
     inkscape:guide-bbox="true"
     inkscape:window-width="1440"
     inkscape:window-height="876"
     inkscape:window-x="0"
     inkscape:window-y="24"
     inkscape:window-maximized="1"
     fit-margin-top="20"
     fit-margin-left="20"
     fit-margin-right="20"
     fit-margin-bottom="20"
     borderlayer="true"
     inkscape:snap-global="true"
     inkscape:snap-bbox="true"
     inkscape:snap-page="true" />
  <metadata
     id="metadata7">
    <rdf:RDF>
      <cc:Work
         rdf:about="">
        <dc:format>image/svg+xml</dc:format>
        <dc:type
           rdf:resource="http://purl.org/dc/dcmitype/StillImage" />
        <dc:title></dc:title>
      </cc:Work>
    </rdf:RDF>
  </metadata>
  <g
     inkscape:label="Layer 1"
     inkscape:groupmode="layer"
     id="layer1"
     style="display:inline"
     transform="translate(432.87128,131.21697)">
    <path
       inkscape:connector-curvature="0"
       inkscape:export-ydpi="8.0357141"
       inkscape:export-xdpi="8.0357141"
       inkscape:export-filename="/home/evgeny/workspace/animotron/bridge/site/animotron/logo-nav.png"
       style="fill:url(#linearGradient4590);fill-opacity:1;fill-rule:evenodd"
       id="path3695"
       d="m -336.7139,9.31278 6.87046,0 7.29281,0 19.83542,0 c 1.57118,0 2.85321,-1.281987 2.85321,-2.853123 l 0,-10.9048984 c 0,-1.571191 -1.28203,-2.8532869 -2.85321,-2.8532869 l -56.93463,0 c -3.66627,0 -6.6575,-2.9911177 -6.6575,-6.6574497 l 0,-18.287045 c 0,-3.666443 2.99123,-6.657448 6.6575,-6.657448 l 57.99229,0 c 3.66634,0 6.65724,2.991005 6.65724,6.657448 l 0,16.278371 c 0,2.095144 1.70919,3.804328 3.8045,3.804328 l 4.95108,0 c 2.09513,0 3.80438,-1.709184 3.80438,-3.804328 l 0,-14.815708 c 0,-1.57119 1.28205,-2.853231 2.85318,-2.853231 l 1.99146,0 c 1.57115,0 2.85325,-1.282042 2.85325,-2.853122 l 0,-3.71858 c 0,-4.190503 -3.41809,-7.608709 -7.60854,-7.608709 l -22.86749,0 c -4.19045,0 -7.60844,-3.41804 -7.60844,-7.60849 l 0,-32.185994 c 0,-4.190502 3.41799,-7.608484 7.60844,-7.608484 l 52.0387,0 c 4.19022,0 7.60854,3.417982 7.60854,7.608484 l 0,12.333232 c 0,4.190617 3.4181,7.608765 7.60838,7.608765 l 22.86754,0 c 4.19128,0 7.60938,3.418097 7.60838,7.609377 l 0,32.185105 c 0,4.190338 -3.41804,7.608544 -7.60838,7.608544 l -49.8102,0 c -4.19056,0 -7.60856,3.418096 -7.60856,7.608545 l 0,34.307946 c 0,1.571135 -1.28205,2.853067 -2.85322,2.853067 l -1.38372,0 c -1.5713,0 -2.85333,1.282207 -2.85333,2.853066 l 0,0.979348 c 0,1.571024 1.28203,2.853066 2.85333,2.853066 l 20.22323,0 c 1.57136,0 2.85339,-1.282042 2.85339,-2.853066 l 0,-8.175455 c 0,-4.19056 3.4181,-7.608546 7.60845,-7.608546 l 53.65938,0 c 4.19023,0 7.60827,3.419037 7.60827,7.608546 l 0,16.384909 c 0,4.189621 -3.41898,7.608545 -7.60827,7.608545 l -58.41475,0 c -1.57016,0 -2.85308,-1.281931 -2.85308,-2.853342 l 0,-0.775064 c 0,-1.571134 -1.28203,-2.853121 -2.85339,-2.853121 l -15.46791,0 c -4.19051,0 -7.60865,3.417929 -7.60865,7.608546 l 0,2.204442 c 0,4.190339 3.41814,7.608656 7.60865,7.608656 l 54.50371,0 c 1.048,0 1.90191,-0.854455 1.90191,-1.902246 l 0,-1.867805 c 0,-1.048123 0.85446,-1.902191 1.90247,-1.902191 l 55.31378,0 c 4.1906,0 7.60864,3.418152 7.60864,7.608601 l 0,4.230366 c 0,4.190228 -3.41804,7.608434 -7.60864,7.608434 l -55.31378,0 c -1.04829,0 -1.90247,-0.854399 -1.90247,-1.902136 l 0,-3.488641 c 0,-1.048013 -0.85446,-1.902026 -1.90191,-1.902026 l -54.50371,0 c -4.19051,0 -7.60865,3.41815 -7.60865,7.60849 l 0,49.113259 89.53925,0 c 1.78323,0 3.24114,3.45791 3.24114,5.24118 l 0,0 c 0,1.78321 -1.46647,5.24112 -3.24114,5.24112 l -192.44845,0 c -1.77467,0 -3.24124,-3.45791 -3.24124,-5.24112 l 0,0 c 0,-1.78327 1.45802,-5.24118 3.24124,-5.24118 l 82.65156,0 0,-38.613286 c 0,-1.048279 -0.85445,-1.902186 -1.9022,-1.902186 l -18.88434,0 c -1.04786,0 -1.90209,0.854453 -1.90209,1.902186 l 0,0.652385 c 0,1.048019 -0.85446,1.901918 -1.9022,1.901918 l -52.88314,0 c -4.19034,0 -7.60838,-3.41804 -7.60838,-7.608491 l 0,-12.333227 c 0,-4.190615 3.41804,-7.608546 7.60838,-7.608546 l 51.9331,0 c 1.57113,0 2.85314,-1.282151 2.85314,-2.853451 l 0,-2.438474 c 0,-1.571022 1.28193,-2.853119 2.85315,-2.853119 l 16.98137,0 c 1.57118,0 2.85321,-1.282097 2.85321,-2.853343 l 0,-25.043402 c 0,-1.57119 -1.28204,-2.853232 -2.85321,-2.853232 l -16.98241,0 c -1.57091,0 -2.85301,1.282042 -2.85301,2.853232 l 0,18.70949 c 0,4.190449 -3.4182,7.608489 -7.60837,7.608489 l -67.04654,0 c -2.61921,0 -4.75542,-2.135997 -4.75542,-4.755256 l 0,-1.833693 c 0,-2.619258 -2.13601,-4.755422 -4.75532,-4.755422 l -7.50576,0 c -2.61944,0 -4.75532,-2.136109 -4.75532,-4.755313 l 0,-22.091483 c 0,-2.61915 2.13588,-4.7554241 4.75532,-4.7554241 l 71.80171,0 c 1.57104,0 2.85307,1.2821521 2.85307,2.8534531 l 0,1.586393 c 0,1.570971 1.28205,2.852957 2.85335,2.852957 l 0,0 z m 22.12731,56.292062 0,3.794486 c 0,1.047074 0.85445,1.902082 1.9023,1.902082 l 10.9201,0 c 1.04803,0 1.90219,-0.854455 1.90219,-1.902082 l 0,-3.794486 c 0,-1.571301 -1.28203,-2.853509 -2.85321,-2.853509 l -9.01815,0 c -1.57107,0 -2.85323,1.282208 -2.85323,2.853509 z m 51.89213,-75.3342127 34.24608,0 c 2.61927,0 4.75543,2.1359987 4.75543,4.755258 l 0,6.2905112 c 0,2.6191485 -2.13616,4.7552565 -4.75543,4.7552565 l -34.24608,0 c -2.61909,0 -4.75519,-2.136108 -4.75519,-4.7552565 l 0,-6.2905112 c 0,-2.6192593 2.1361,-4.755258 4.75519,-4.755258 z"
       class="fil5"
       sodipodi:nodetypes="cccssssssssssssssssssssssssssssscsssssssssssssssssssssssssssssssssssssssscsccssccscsssssssssssssssssssssssssssssssssccccsssssssccsssssssss" />
  </g>
  <g
     inkscape:groupmode="layer"
     id="layer2"
     inkscape:label="Слой"
     style="display:inline;filter:url(#filter4580)"
     transform="translate(432.87128,131.21697)" />
</svg>
