<?xml version="1.0" encoding="UTF-8"?>
<!-- Created with Inkscape (http://www.inkscape.org/) -->
<svg xmlns="http://www.w3.org/2000/svg" xmlns:dc="http://purl.org/dc/elements/1.1/" xmlns:svg="http://www.w3.org/2000/svg" xmlns:inkscape="http://www.inkscape.org/namespaces/inkscape" xmlns:xlink="http://www.w3.org/1999/xlink" xmlns:rdf="http://www.w3.org/1999/02/22-rdf-syntax-ns#" xmlns:sodipodi="http://sodipodi.sourceforge.net/DTD/sodipodi-0.dtd" xmlns:cc="http://creativecommons.org/ns#" width="150" height="25" id="svg2" version="1.1" inkscape:version="0.48.0 r9654" style="enable-background:new" sodipodi:docname="Новый документ 1">
    <defs id="defs4">
        <linearGradient id="linearGradient3786" inkscape:collect="always">
            <stop id="stop3788" offset="0" style="stop-color:#333333;stop-opacity:1"/>
            <stop id="stop3790" offset="1" style="stop-color:#ffffff;stop-opacity:0"/>
        </linearGradient>
        <metadata id="CorelCorpID_0Corel-Layer"/>
        <linearGradient y2="36.685001" x2="31.4172" y1="27.632401" x1="30.625401" gradientUnits="userSpaceOnUse" id="linearGradient2480" xlink:href="#id0" inkscape:collect="always"/>
        <linearGradient y2="90.093498" x2="31.4177" y1="81.039703" x1="30.624901" xlink:href="#id0" gradientUnits="userSpaceOnUse" id="id1"/>
        <linearGradient y2="36.685001" x2="31.4172" y1="27.632401" x1="30.625401" gradientUnits="userSpaceOnUse" id="id0">
            <stop id="stop9" style="stop-color:#84C225" offset="0"/>
            <stop id="stop11" style="stop-color:#E77817" offset="1"/>
        </linearGradient>
        <style id="style6" type="text/css">
   
    .fil5 {fill:#42929D}
    .fil4 {fill:#8E84B7}
    .fil1 {fill:white}
    .fil2 {fill:#161311}
    .fil0 {fill:url(#id0)}
    .fil3 {fill:url(#id1)}
   
  </style>
        <inkscape:perspective id="perspective107" inkscape:persp3d-origin="372.04724 : 350.78739 : 1" inkscape:vp_z="744.09448 : 526.18109 : 1" inkscape:vp_y="0 : 1000 : 0" inkscape:vp_x="0 : 526.18109 : 1" sodipodi:type="inkscape:persp3d"/>
        <filter inkscape:collect="always" id="filter3691" color-interpolation-filters="sRGB">
            <feBlend inkscape:collect="always" mode="multiply" in2="BackgroundImage" id="feBlend3693"/>
        </filter>
        <linearGradient inkscape:collect="always" xlink:href="#linearGradient3682-5" id="linearGradient3688-6" x1="-383.57144" y1="140.27336" x2="-383.57144" y2="124.28388" gradientUnits="userSpaceOnUse"/>
        <linearGradient inkscape:collect="always" id="linearGradient3682-5">
            <stop style="stop-color:#aa0000;stop-opacity:1" offset="0" id="stop3684-1"/>
            <stop style="stop-color:#ff0000;stop-opacity:1" offset="1" id="stop3686-7"/>
        </linearGradient>
        <linearGradient inkscape:collect="always" xlink:href="#linearGradient3682-0" id="linearGradient3688-3" x1="-383.57144" y1="140.27336" x2="-383.57144" y2="124.28388" gradientUnits="userSpaceOnUse"/>
        <linearGradient inkscape:collect="always" id="linearGradient3682-0">
            <stop style="stop-color:#aa0000;stop-opacity:1" offset="0" id="stop3684-4"/>
            <stop style="stop-color:#ff0000;stop-opacity:1" offset="1" id="stop3686-4"/>
        </linearGradient>
        <linearGradient inkscape:collect="always" xlink:href="#linearGradient3786" id="linearGradient3854" gradientUnits="userSpaceOnUse" gradientTransform="translate(1.01015,-3.3255986e-6)" x1="-383.57144" y1="140.81261" x2="-383.57144" y2="111.31559"/>
    </defs>
    <sodipodi:namedview id="base" pagecolor="#ffffff" bordercolor="#666666" borderopacity="1.0" inkscape:pageopacity="0.0" inkscape:pageshadow="2" inkscape:zoom="3.959798" inkscape:cx="97.52196" inkscape:cy="-36.263048" inkscape:document-units="px" inkscape:current-layer="layer2" showgrid="false" showguides="true" inkscape:guide-bbox="true" inkscape:window-width="1440" inkscape:window-height="874" inkscape:window-x="0" inkscape:window-y="1" inkscape:window-maximized="1" fit-margin-top="0" fit-margin-left="0" fit-margin-right="0" fit-margin-bottom="0" borderlayer="true"/>
    <metadata id="metadata7">
        <rdf:RDF>
            <cc:Work rdf:about="">
                <dc:format>image/svg+xml</dc:format>
                <dc:type rdf:resource="http://purl.org/dc/dcmitype/StillImage"/>
                <dc:title/>
            </cc:Work>
        </rdf:RDF>
    </metadata>
    <g inkscape:label="Layer 1" inkscape:groupmode="layer" id="layer1" style="display:inline" transform="translate(412.87128,-119.78303)">
        <path inkscape:connector-curvature="0" inkscape:export-ydpi="27" inkscape:export-xdpi="27" inkscape:export-filename="/home/frog/workspace/schematronic/logo.png" style="fill:#ff0000;fill-opacity:1;fill-rule:evenodd" id="path3695" d="m -402.46189,131.69021 0.74459,0 0.79036,0 2.14967,0 c 0.17028,0 0.30922,-0.13894 0.30922,-0.30921 l 0,-1.18182 c 0,-0.17028 -0.13894,-0.30923 -0.30922,-0.30923 l -6.17031,0 c -0.39733,0 -0.72151,-0.32416 -0.72151,-0.7215 l 0,-1.98187 c 0,-0.39735 0.32418,-0.7215 0.72151,-0.7215 l 6.28494,0 c 0.39734,0 0.72148,0.32415 0.72148,0.7215 l 0,1.76418 c 0,0.22706 0.18523,0.41229 0.41231,0.41229 l 0.53658,0 c 0.22706,0 0.4123,-0.18523 0.4123,-0.41229 l 0,-1.60566 c 0,-0.17028 0.13894,-0.30922 0.30921,-0.30922 l 0.21583,0 c 0.17027,0 0.30922,-0.13894 0.30922,-0.30921 l 0,-0.403 c 0,-0.45415 -0.37044,-0.8246 -0.82458,-0.8246 l -2.47827,0 c -0.45414,0 -0.82457,-0.37043 -0.82457,-0.82457 l 0,-3.48817 c 0,-0.45415 0.37043,-0.82457 0.82457,-0.82457 l 5.63971,0 c 0.45412,0 0.82458,0.37042 0.82458,0.82457 l 0,1.33662 c 0,0.45416 0.37044,0.8246 0.82456,0.8246 l 2.47828,0 c 0.45423,0 0.82467,0.37044 0.82456,0.82467 l 0,3.48807 c 0,0.45413 -0.37043,0.82458 -0.82456,0.82458 l -5.3982,0 c -0.45415,0 -0.82458,0.37044 -0.82458,0.82458 l 0,3.71814 c 0,0.17027 -0.13894,0.3092 -0.30922,0.3092 l -0.14996,0 c -0.17029,0 -0.30923,0.13896 -0.30923,0.3092 l 0,0.10614 c 0,0.17026 0.13894,0.3092 0.30923,0.3092 l 2.1917,0 c 0.1703,0 0.30924,-0.13894 0.30924,-0.3092 l 0,-0.88602 c 0,-0.45415 0.37044,-0.82458 0.82457,-0.82458 l 5.81535,0 c 0.45412,0 0.82455,0.37054 0.82455,0.82458 l 0,1.77572 c 0,0.45405 -0.37053,0.82458 -0.82455,0.82458 l -6.33072,0 c -0.17016,0 -0.3092,-0.13893 -0.3092,-0.30923 l 0,-0.084 c 0,-0.17027 -0.13894,-0.30921 -0.30924,-0.30921 l -1.67634,0 c -0.45415,0 -0.82459,0.37042 -0.82459,0.82458 l 0,0.23891 c 0,0.45413 0.37044,0.82459 0.82459,0.82459 l 5.90686,0 c 0.11358,0 0.20612,-0.0926 0.20612,-0.20616 l 0,-0.20242 c 0,-0.11359 0.0926,-0.20615 0.20618,-0.20615 l 5.99465,0 c 0.45416,0 0.82459,0.37044 0.82459,0.82458 l 0,0.45847 c 0,0.45412 -0.37043,0.82457 -0.82459,0.82457 l -5.99465,0 c -0.11361,0 -0.20618,-0.0926 -0.20618,-0.20615 l 0,-0.37808 c 0,-0.11358 -0.0926,-0.20613 -0.20612,-0.20613 l -5.90686,0 c -0.45415,0 -0.82459,0.37044 -0.82459,0.82457 l 0,5.32267 9.70385,0 c 0.19326,0 0.35126,0.158 0.35126,0.35126 l 0,0 c 0,0.19326 -0.15893,0.35126 -0.35126,0.35126 l -20.85667,0 c -0.19233,0 -0.35127,-0.158 -0.35127,-0.35126 l 0,0 c 0,-0.19326 0.15801,-0.35126 0.35127,-0.35126 l 8.95739,0 0,-4.18473 c 0,-0.11361 -0.0926,-0.20615 -0.20615,-0.20615 l -2.0466,0 c -0.11356,0 -0.20614,0.0926 -0.20614,0.20615 l 0,0.0707 c 0,0.11358 -0.0926,0.20612 -0.20615,0.20612 l -5.73123,0 c -0.45413,0 -0.82456,-0.37043 -0.82456,-0.82457 l 0,-1.33662 c 0,-0.45416 0.37043,-0.82458 0.82456,-0.82458 l 5.62827,0 c 0.17027,0 0.30921,-0.13895 0.30921,-0.30924 l 0,-0.26427 c 0,-0.17026 0.13893,-0.30921 0.30921,-0.30921 l 1.84036,0 c 0.17028,0 0.30922,-0.13895 0.30922,-0.30923 l 0,-2.71409 c 0,-0.17028 -0.13894,-0.30922 -0.30922,-0.30922 l -1.84047,0 c -0.17025,0 -0.3092,0.13894 -0.3092,0.30922 l 0,2.02765 c 0,0.45414 -0.37045,0.82457 -0.82456,0.82457 l -7.26619,0 c -0.28386,0 -0.51537,-0.23149 -0.51537,-0.51535 l 0,-0.19873 c 0,-0.28386 -0.23149,-0.51537 -0.51536,-0.51537 l -0.81344,0 c -0.28388,0 -0.51536,-0.2315 -0.51536,-0.51536 l 0,-2.39417 c 0,-0.28385 0.23148,-0.51537 0.51536,-0.51537 l 7.78154,0 c 0.17026,0 0.3092,0.13895 0.3092,0.30924 l 0,0.17193 c 0,0.17025 0.13894,0.30919 0.30923,0.30919 l 0,0 z m 2.39806,6.10067 0,0.41123 c 0,0.11348 0.0926,0.20614 0.20616,0.20614 l 1.18347,0 c 0.11358,0 0.20615,-0.0926 0.20615,-0.20614 l 0,-0.41123 c 0,-0.17029 -0.13894,-0.30925 -0.30922,-0.30925 l -0.97734,0 c -0.17027,0 -0.30922,0.13896 -0.30922,0.30925 l 0,0 z m 5.62383,-8.16437 3.71143,0 c 0.28386,0 0.51537,0.23149 0.51537,0.51535 l 0,0.68174 c 0,0.28385 -0.23151,0.51535 -0.51537,0.51535 l -3.71143,0 c -0.28385,0 -0.51535,-0.2315 -0.51535,-0.51535 l 0,-0.68174 c 0,-0.28386 0.2315,-0.51535 0.51535,-0.51535 z" class="fil5"/>
    </g>
    <g inkscape:groupmode="layer" id="layer2" inkscape:label="Слой" style="opacity:0.82999998;display:inline" transform="translate(412.87128,-119.78303)">
        <path class="fil5" d="m -392.97378,116.42114 1.48886,0 1.58042,0 4.29851,0 c 0.34049,0 0.61832,-0.27783 0.61832,-0.61831 l 0,-2.36318 c 0,-0.3405 -0.27783,-0.61833 -0.61832,-0.61833 l -12.33824,0 c -0.79451,0 -1.44273,-0.64821 -1.44273,-1.44273 l 0,-3.96298 c 0,-0.79454 0.64822,-1.44271 1.44273,-1.44271 l 12.56745,0 c 0.79452,0 1.4427,0.64817 1.4427,1.44271 l 0,3.52769 c 0,0.45403 0.37037,0.82441 0.82444,0.82441 l 1.07296,0 c 0.45404,0 0.82443,-0.37038 0.82443,-0.82441 l 0,-3.2107 c 0,-0.34048 0.27783,-0.6183 0.61829,-0.6183 l 0.43162,0 c 0.34045,0 0.61829,-0.27783 0.61829,-0.61833 l 0,-0.80586 c 0,-0.90811 -0.74073,-1.64885 -1.64883,-1.64885 l -4.95558,0 c -0.90811,0 -1.64883,-0.74075 -1.64883,-1.64883 l 0,-6.974987 c 0,-0.9081 0.74072,-1.64883 1.64883,-1.64883 l 11.27722,0 c 0.90808,0 1.64885,0.74073 1.64885,1.64883 l 0,2.67274 c 0,0.90811 0.74073,1.64885 1.6488,1.64885 l 4.95561,0 c 0.90829,0 1.64901,0.740747 1.64882,1.649027 l 0,6.97479 c 0,0.90811 -0.74074,1.64885 -1.64882,1.64885 l -10.79431,0 c -0.90812,0 -1.64885,0.74075 -1.64885,1.64883 l 0,7.43483 c 0,0.34047 -0.27783,0.61829 -0.61831,0.61829 l -0.29988,0 c -0.3405,0 -0.61833,0.27786 -0.61833,0.6183 l 0,0.2122 c 0,0.34048 0.27783,0.61831 0.61833,0.61831 l 4.38258,0 c 0.34052,0 0.61835,-0.27783 0.61835,-0.61831 l 0,-1.77168 c 0,-0.90809 0.74072,-1.64883 1.64883,-1.64883 l 11.62843,0 c 0.90807,0 1.64879,0.74093 1.64879,1.64883 l 0,3.55076 c 0,0.90791 -0.74094,1.64885 -1.64879,1.64885 l -12.65896,0 c -0.34027,0 -0.6183,-0.27782 -0.6183,-0.61833 l 0,-0.16815 c 0,-0.34047 -0.27783,-0.61831 -0.61835,-0.61831 l -3.35206,0 c -0.9081,0 -1.64885,0.74072 -1.64885,1.64883 l 0,0.47775 c 0,0.90811 0.74075,1.64885 1.64885,1.64885 l 11.81143,0 c 0.22714,0 0.41219,-0.18515 0.41219,-0.41223 l 0,-0.40478 c 0,-0.22711 0.18519,-0.4122 0.41226,-0.4122 l 11.98699,0 c 0.90814,0 1.64884,0.74073 1.64884,1.64884 l 0,0.91677 c 0,0.90807 -0.7407,1.64882 -1.64884,1.64882 l -11.98699,0 c -0.22715,0 -0.41226,-0.18517 -0.41226,-0.41221 l 0,-0.75601 c 0,-0.22713 -0.18515,-0.41219 -0.41219,-0.41219 l -11.81143,0 c -0.9081,0 -1.64885,0.74074 -1.64885,1.64882 l 0,10.64327 19.40393,0 c 0.38645,0 0.7024,0.31595 0.7024,0.70238 l 0,0 c 0,0.38645 -0.31781,0.70242 -0.7024,0.70242 l -41.70525,0 c -0.38459,0 -0.70241,-0.31597 -0.70241,-0.70242 l 0,0 c 0,-0.38643 0.31597,-0.70238 0.70241,-0.70238 l 17.91131,0 0,-8.36785 c 0,-0.22714 -0.18516,-0.41221 -0.41221,-0.41221 l -4.09242,0 c -0.22711,0 -0.4122,0.18515 -0.4122,0.41221 l 0,0.14132 c 0,0.22712 -0.18517,0.41219 -0.41222,0.41219 l -11.46023,0 c -0.9081,0 -1.64881,-0.74074 -1.64881,-1.64882 l 0,-2.67275 c 0,-0.90812 0.74071,-1.64884 1.64881,-1.64884 l 11.25435,0 c 0.34047,0 0.61831,-0.27783 0.61831,-0.61833 l 0,-0.52843 c 0,-0.3405 0.27781,-0.61835 0.61831,-0.61835 l 3.67999,0 c 0.34049,0 0.61832,-0.27783 0.61832,-0.61831 l 0,-5.42714 c 0,-0.34049 -0.27783,-0.61833 -0.61832,-0.61833 l -3.68022,0 c -0.34045,0 -0.61829,0.27784 -0.61829,0.61833 l 0,4.05449 c 0,0.90812 -0.74075,1.64884 -1.64883,1.64884 l -14.52954,0 c -0.56762,0 -1.03053,-0.46288 -1.03053,-1.03051 l 0,-0.39738 c 0,-0.56761 -0.46291,-1.03052 -1.03052,-1.03052 l -1.62659,0 c -0.56762,0 -1.0305,-0.46294 -1.0305,-1.03052 l 0,-4.78743 c 0,-0.56758 0.46288,-1.03052 1.0305,-1.03052 l 15.56008,0 c 0.34047,0 0.6183,0.27783 0.6183,0.61833 l 0,0.34378 c 0,0.34047 0.27783,0.6183 0.61835,0.6183 l 0,0 z m 4.79518,12.19894 0,0.82234 c 0,0.22691 0.18518,0.41218 0.41224,0.41218 l 2.36648,0 c 0.2271,0 0.41221,-0.18514 0.41221,-0.41218 l 0,-0.82234 c 0,-0.3405 -0.27783,-0.61835 -0.61832,-0.61835 l -1.9543,0 c -0.34047,0 -0.61831,0.27785 -0.61831,0.61835 l 0,0 z m 11.24548,-16.32557 7.42142,0 c 0.56762,0 1.03053,0.46293 1.03053,1.03052 l 0,1.36321 c 0,0.56761 -0.46291,1.03051 -1.03053,1.03051 l -7.42142,0 c -0.5676,0 -1.03053,-0.4629 -1.03053,-1.03051 l 0,-1.36321 c 0,-0.56759 0.46293,-1.03052 1.03053,-1.03052 z" id="path2890" style="fill:url(#linearGradient3854);fill-opacity:1;fill-rule:evenodd;display:inline;filter:url(#filter3691)" inkscape:export-filename="/home/frog/workspace/schematronic/logo.png" inkscape:export-xdpi="27" inkscape:export-ydpi="27" inkscape:connector-curvature="0" transform="matrix(0.50009672,0,0,0.50009672,-205.93699,73.468397)"/>
    </g>
</svg>